<svg width="21" height="22" viewBox="0 0 21 22" fill="none" xmlns="http://www.w3.org/2000/svg">
<path d="M20.6794 9.38175L20.5734 8.93222H10.8028V13.0675H16.6406C16.0345 15.9457 13.222 17.4607 10.9247 17.4607C9.25312 17.4607 7.49109 16.7575 6.32484 15.6274C5.70953 15.0216 5.21974 14.3004 4.88353 13.505C4.54731 12.7097 4.37126 11.8558 4.36547 10.9924C4.36547 9.2505 5.14828 7.50816 6.28734 6.36206C7.4264 5.21597 9.14671 4.57472 10.8572 4.57472C12.8161 4.57472 14.22 5.61488 14.745 6.08925L17.6836 3.16613C16.8216 2.40863 14.4534 0.499878 10.7625 0.499878C7.91484 0.499878 5.18437 1.59066 3.18844 3.58003C1.21875 5.53894 0.199219 8.37159 0.199219 10.9999C0.199219 13.6282 1.16391 16.3192 3.07266 18.2936C5.11219 20.3992 8.00062 21.4999 10.9748 21.4999C13.6809 21.4999 16.2459 20.4396 18.0741 18.5158C19.8712 16.6221 20.8008 14.0017 20.8008 11.2549C20.8008 10.0985 20.6845 9.41175 20.6794 9.38175Z" fill="white"/>
</svg>
